<?xml version="1.0" encoding="utf-8"?>
<svg version="1.1" id="Layer_1" xmlns="http://www.w3.org/2000/svg" xmlns:xlink="http://www.w3.org/1999/xlink" x="0px" y="0px"
	 viewBox="0 0 256 256" style="enable-background:new 0 0 256 256;" xml:space="preserve">
<path d="M-0.5-0.5v257h257v-257H-0.5z M238.6,238.6H17.4V17.4h221.1V238.6z M128,190.8c44.2,0,80.7-36.5,80.7-80.7h-17.9
	c0,34.7-28.1,62.8-62.8,62.8s-62.8-28.1-62.8-62.8H47.3C47.3,154.3,83.8,190.8,128,190.8z M102.3,98.1c6.6,0,12-5.4,12-12
	c0-6.6-5.4-12-12-12c-6.6,0-12,5.4-12,12C90.3,92.7,95.7,98.1,102.3,98.1z M151.9,98.1c6.6,0,12-5.4,12-12c0-6.6-5.4-12-12-12
	c-6.6,0-12,5.4-12,12C140,92.7,145.3,98.1,151.9,98.1z"/>
</svg>
