<svg version="1.0" xmlns="http://www.w3.org/2000/svg" width="933.333" height="933.333" viewBox="0 0 700 700"><path d="M0 350v350h700V0H0v350zM638.8 49H651v602H49V49l80.3-.2c44.1-.2 174-.2 288.7-.1 114.7.2 214 .3 220.8.3z"/><path d="M272.1 204.6c-7.5 2-10.2 3.6-15.9 9.9-13.7 14.9-10.7 37.7 6.3 48.8 17.3 11.2 41.2 3.1 48-16.4 8.6-24.3-13.5-48.6-38.4-42.3zM407.2 204.6c-11.4 2.9-21.3 12.9-23.8 23.9-1.1 4.8-.6 13.6 1.2 18.6 2.7 7.7 12 17 19.4 19.4 18.9 6.3 38.2-4.2 42.6-23.1 5.5-23.7-15.8-44.8-39.4-38.8zM130.6 301.9c-.8 1.2.6 22.8 2 30.7 2.4 14.1 4.1 21.5 7.1 31.4 17.7 58.5 59.8 107.8 114.8 134.5 20 9.7 37 15.3 55.5 18.5 3 .6 6.5 1.2 7.7 1.4 13.8 2.8 48 2.8 64.3.1 1.4-.3 4.3-.7 6.5-1.1 2.2-.3 8.5-1.7 13.9-3 60.8-15.2 113.2-56.6 142.3-112.4 15.4-29.4 24.4-63.6 24.7-94l.1-6.5-24.2-.3-24.3-.2-.1 4.2c-.6 25.7-7.1 50.7-19.6 75.3-7.1 14-23.3 35.2-34.7 45.5-2.2 1.9-4.4 4-5 4.5-17.6 16.6-53.2 34-77.6 38.1-1.4.2-4.7.9-7.5 1.5-7.7 1.7-39.5 1.9-50 .3-53.5-8.1-98.3-38.3-124.7-84.4-7.9-13.8-16.2-34.6-18.3-45.8-.3-1.5-.7-3.6-.9-4.7-2-10.5-3.4-21.8-3.5-29.8l-.1-4.7h-23.9c-13.2 0-24.2.4-24.5.9z"/></svg>